<?xml version="1.0" encoding="utf-8"?>
<!-- Generator: Adobe Illustrator 18.1.1, SVG Export Plug-In . SVG Version: 6.00 Build 0)  -->
<!DOCTYPE svg PUBLIC "-//W3C//DTD SVG 1.1//EN" "http://www.w3.org/Graphics/SVG/1.1/DTD/svg11.dtd">
<svg version="1.1" id="Ebene_1" xmlns="http://www.w3.org/2000/svg" xmlns:xlink="http://www.w3.org/1999/xlink" x="0px" y="0px"
	 viewBox="0 0 16 16" enable-background="new 0 0 16 16" xml:space="preserve">
<g>
	<path fill="#B0B0B0" d="M8.1,0.2C3.8,0.2,0.2,3.7,0.2,8s3.5,7.8,7.8,7.8s7.8-3.5,7.8-7.8S12.3,0.2,8.1,0.2z M8.1,13.8
		c-3.2,0-5.8-2.5-5.8-5.8c0-3.2,2.5-5.8,5.8-5.8c3.2,0,5.8,2.5,5.8,5.8C13.9,11.1,11.2,13.8,8.1,13.8z"/>
	<ellipse fill="#B0B0B0" cx="5.7" cy="5" rx="0.8" ry="0.7"/>
	<ellipse fill="#B0B0B0" cx="10.3" cy="5" rx="0.8" ry="0.7"/>
	<path fill="#B0B0B0" d="M8,7C6.5,7,5.4,8.4,5.4,9.9c0,1.6,1.2,2.9,2.6,2.9c1.5,0,2.6-1.4,2.6-2.9C10.6,8.4,9.4,7,8,7z M8,12.1
		c-0.9,0-1.7-0.9-1.7-2.1S7,7.9,8,7.9c0.9,0,1.7,0.9,1.7,2.1C9.7,11.1,8.9,12.1,8,12.1z"/>
</g>
</svg>
