<?xml version="1.0" encoding="utf-8"?>
<!-- Generator: Adobe Illustrator 18.1.1, SVG Export Plug-In . SVG Version: 6.00 Build 0)  -->
<!DOCTYPE svg PUBLIC "-//W3C//DTD SVG 1.1//EN" "http://www.w3.org/Graphics/SVG/1.1/DTD/svg11.dtd">
<svg version="1.1" id="Ebene_1" xmlns="http://www.w3.org/2000/svg" xmlns:xlink="http://www.w3.org/1999/xlink" x="0px" y="0px"
	 viewBox="0 0 16 16" enable-background="new 0 0 16 16" xml:space="preserve">
<g>
	<path fill="#B1B1B1" d="M8,16c-0.3,0-0.6-0.2-0.8-0.4L6,13.3c-2.9-0.9-4.8-3.5-4.8-6.5C1.2,3.1,4.2,0,8,0c3.8,0,6.8,3.1,6.8,6.8
		c0,3-2,5.6-4.8,6.5l-1.3,2.2C8.6,15.8,8.3,16,8,16z M8,1.7C5.2,1.7,2.9,4,2.9,6.8c0,2.3,1.6,4.4,3.9,4.9C7,11.8,7.2,12,7.3,12.2
		L8,13.4l0.7-1.2C8.8,12,9,11.8,9.2,11.8c2.3-0.6,3.9-2.6,3.9-4.9C13.1,4,10.8,1.7,8,1.7z"/>
</g>
<g>
	<g>
		<path fill="#B1B1B1" d="M8,8.5c-0.5,0-0.9-0.4-0.9-0.9V3.8C7.1,3.3,7.5,3,8,3c0.5,0,0.9,0.4,0.9,0.9v3.8C8.9,8.1,8.5,8.5,8,8.5z"
			/>
	</g>
</g>
<g>
	<g>
		<path fill="#B1B1B1" d="M8,10.9c-0.2,0-0.5-0.1-0.6-0.3c-0.2-0.2-0.3-0.4-0.3-0.6c0-0.2,0.1-0.5,0.3-0.6C7.5,9.3,7.8,9.2,8,9.2
			c0.2,0,0.5,0.1,0.6,0.3c0.2,0.2,0.3,0.4,0.3,0.6s-0.1,0.5-0.3,0.6C8.5,10.8,8.2,10.9,8,10.9z"/>
	</g>
</g>
</svg>
